<?xml version="1.0" encoding="iso-8859-1"?>
<!-- Generator: Adobe Illustrator 16.0.0, SVG Export Plug-In . SVG Version: 6.00 Build 0)  -->
<!DOCTYPE svg PUBLIC "-//W3C//DTD SVG 1.1//EN" "http://www.w3.org/Graphics/SVG/1.1/DTD/svg11.dtd">
<svg version="1.1" id="Capa_1" xmlns="http://www.w3.org/2000/svg" xmlns:xlink="http://www.w3.org/1999/xlink" x="0px" y="0px"
	 width="341.804px" height="341.804px" viewBox="0 0 341.804 341.804" style="enable-background:new 0 0 341.804 341.804;"
	 xml:space="preserve">
<g>
	<path d="M341.67,63.873c-3.167-28.107-89.932-43.265-170.77-43.265c-80.805,0-167.539,15.146-170.762,43.242
		C0.049,64.166,0,64.499,0,64.849v36.359c0,1.25,0.637,2.416,1.699,3.081l124.151,78.257v135.013c0,1.147,0.551,2.241,1.48,2.928
		c0.633,0.468,1.396,0.709,2.157,0.709c0.357,0,0.717-0.044,1.07-0.158l82.823-25.451c1.526-0.471,2.568-1.877,2.568-3.479V182.546
		l124.157-78.263c1.051-0.665,1.698-1.831,1.698-3.081V64.844C341.804,64.518,341.758,64.187,341.67,63.873z M169.539,38.176
		c91.312,0,139.082,14.591,139.082,22.419c0,0.946-1.465,2.854-5,4.823c-14.492,4.73-27.754,8.2-40.533,10.613
		c-6.145,1.149-12.457,2.131-18.648,3.056c-22.583,2.588-48.475,3.932-74.9,3.932c-91.316,0-139.083-14.596-139.083-22.424
		S78.223,38.176,169.539,38.176z"/>
</g>
<g>
</g>
<g>
</g>
<g>
</g>
<g>
</g>
<g>
</g>
<g>
</g>
<g>
</g>
<g>
</g>
<g>
</g>
<g>
</g>
<g>
</g>
<g>
</g>
<g>
</g>
<g>
</g>
<g>
</g>
</svg>
